#define battery_icon_width 4
#define battery_icon_height 6
static const unsigned char battery_icon_bits[] = {
  0x06, 0x0F, 0x09, 0x09, 0x09, 0x0F, };
