#define ihc_logo_width 84
#define ihc_logo_height 48
static const unsigned char ihc_logo_bits[] = {
   0x00, 0x00, 0x00, 0x00, 0x00, 0x00, 0x00, 0x00, 0x00, 0x00, 0x00, 0x00,
   0x00, 0x00, 0x00, 0x00, 0x00, 0x00, 0x00, 0x00, 0x00, 0x00, 0x00, 0x00,
   0x00, 0x00, 0x00, 0x00, 0x00, 0x00, 0x00, 0x00, 0x00, 0x00, 0x00, 0x00,
   0x00, 0x00, 0x00, 0x00, 0x00, 0x00, 0x00, 0x00, 0x00, 0x00, 0x00, 0x00,
   0x00, 0x00, 0x00, 0x00, 0x00, 0x00, 0x00, 0x00, 0x00, 0x00, 0x00, 0x00,
   0x00, 0x00, 0x00, 0x00, 0x00, 0x00, 0x00, 0x00, 0x00, 0x00, 0x00, 0x00,
   0x00, 0x00, 0x00, 0x00, 0x00, 0x00, 0x00, 0x00, 0x00, 0x00, 0x00, 0x00,
   0x00, 0x00, 0x00, 0x00, 0x00, 0x00, 0x00, 0x00, 0x00, 0x00, 0x00, 0x00,
   0xfe, 0x00, 0x00, 0x00, 0xfc, 0xff, 0x03, 0x1e, 0x80, 0x07, 0x80, 0xff,
   0x03, 0x00, 0x00, 0xfc, 0xff, 0x03, 0x1e, 0x80, 0x07, 0xe0, 0xff, 0x07,
   0x00, 0x00, 0xfc, 0xff, 0x03, 0x1e, 0x80, 0x07, 0xf0, 0x83, 0x07, 0x00,
   0x00, 0x00, 0x0f, 0x00, 0x1e, 0x80, 0x07, 0xf8, 0x00, 0x06, 0x00, 0x00,
   0x00, 0x0f, 0x00, 0x1e, 0x80, 0x07, 0x78, 0x00, 0x04, 0x00, 0x00, 0x00,
   0x0f, 0x00, 0x1e, 0x80, 0x07, 0x3c, 0x00, 0x00, 0x00, 0x00, 0x00, 0x0f,
   0x00, 0x1e, 0x80, 0x07, 0x3c, 0x00, 0x00, 0x00, 0x00, 0x00, 0x0f, 0x00,
   0x1e, 0x80, 0x07, 0x3c, 0x00, 0x00, 0x00, 0x00, 0x00, 0x0f, 0x00, 0x1e,
   0x80, 0x07, 0x1e, 0x00, 0x00, 0x00, 0x00, 0x00, 0x0f, 0x00, 0x1e, 0x80,
   0x07, 0x1e, 0x00, 0x00, 0x00, 0x00, 0x00, 0x0f, 0x00, 0x1e, 0x80, 0x07,
   0x1e, 0x00, 0x00, 0x00, 0x00, 0x00, 0x0f, 0x00, 0x1e, 0x80, 0x07, 0x1e,
   0x00, 0x00, 0x00, 0x00, 0x00, 0x0f, 0x00, 0xfe, 0xff, 0x07, 0x1e, 0x00,
   0x00, 0x00, 0x00, 0x00, 0x0f, 0x00, 0xfe, 0xff, 0x07, 0x1e, 0x00, 0x00,
   0x00, 0x00, 0x00, 0x0f, 0x00, 0xfe, 0xff, 0x07, 0x1e, 0x00, 0x00, 0x00,
   0x00, 0x00, 0x0f, 0x00, 0x1e, 0x80, 0x07, 0x1e, 0x00, 0x00, 0x00, 0x00,
   0x00, 0x0f, 0x00, 0x1e, 0x80, 0x07, 0x1e, 0x00, 0x00, 0x00, 0x00, 0x00,
   0x0f, 0x00, 0x1e, 0x80, 0x07, 0x1e, 0x00, 0x00, 0x00, 0x00, 0x00, 0x0f,
   0x00, 0x1e, 0x80, 0x07, 0x1e, 0x00, 0x00, 0x00, 0x00, 0x00, 0x0f, 0x00,
   0x1e, 0x80, 0x07, 0x1e, 0x00, 0x00, 0x00, 0x00, 0x00, 0x0f, 0x00, 0x1e,
   0x80, 0x07, 0x3c, 0x00, 0x00, 0x00, 0x00, 0x00, 0x0f, 0x00, 0x1e, 0x80,
   0x07, 0x3c, 0x00, 0x00, 0x00, 0x00, 0x00, 0x0f, 0x00, 0x1e, 0x80, 0x07,
   0x3c, 0x00, 0x00, 0x00, 0x00, 0x00, 0x0f, 0x00, 0x1e, 0x80, 0x07, 0x78,
   0x00, 0x04, 0x00, 0x00, 0x00, 0x0f, 0x00, 0x1e, 0x80, 0x07, 0xf8, 0x00,
   0x06, 0x00, 0x00, 0x00, 0x0f, 0x00, 0x1e, 0x80, 0x07, 0xf0, 0x83, 0x07,
   0x00, 0x00, 0xfc, 0xff, 0x03, 0x1e, 0x80, 0x07, 0xe0, 0xff, 0x07, 0x00,
   0x00, 0xfc, 0xff, 0x03, 0x1e, 0x80, 0x07, 0x80, 0xff, 0x03, 0x00, 0x00,
   0xfc, 0xff, 0x03, 0x1e, 0x80, 0x07, 0x00, 0xfe, 0x00, 0x00, 0x00, 0x00,
   0x00, 0x00, 0x00, 0x00, 0x00, 0x00, 0x00, 0x00, 0x00, 0x00, 0x00, 0x00,
   0x00, 0x00, 0x00, 0x00, 0x00, 0x00, 0x00, 0x00, 0x00, 0x00, 0x00, 0x00,
   0x00, 0x00, 0x00, 0x00, 0x00, 0x00, 0x00, 0x00, 0x00, 0x00, 0x00, 0x00,
   0x00, 0x00, 0x00, 0x00, 0x00, 0x00, 0x00, 0x00, 0x00, 0x00, 0x00, 0x00,
   0x00, 0x00, 0x00, 0x00, 0x00, 0x00, 0x00, 0x00, 0x00, 0x00, 0x00, 0x00,
   0x00, 0x00, 0x00, 0x00, 0x00, 0x00, 0x00, 0x00, 0x00, 0x00, 0x00, 0x00,
   0x00, 0x00, 0x00, 0x00, 0x00, 0x00, 0x00, 0x00, 0x00, 0x00, 0x00, 0x00,
   0x00, 0x00, 0x00, 0x00, 0x00, 0x00, 0x00, 0x00, 0x00, 0x00, 0x00, 0x00,
   0x00, 0x00, 0x00, 0x00, 0x00, 0x00, 0x00, 0x00, 0x00, 0x00, 0x00, 0x00 };
